{"title":"The.Sweet.Hereafter.1997.1080p.BluRay.x264.DTS-FGT","uid":13389663,"size":10520955564,"categoryP":"video","categoryS":"hd___movies","magnet":"?xt=urn:btih:0d7238c39c17b8785d9bf5ac347d0e4d004f0a19&amp;dn=The.Sweet.Hereafter.1997.1080p.BluRay.x264.DTS-FGT&amp;tr=udp%3A%2F%2Ftracker.leechers-paradise.org%3A6969&amp;tr=udp%3A%2F%2Fzer0day.ch%3A1337&amp;tr=udp%3A%2F%2Fopen.demonii.com%3A1337&amp;tr=udp%3A%2F%2Ftracker.coppersurfer.tk%3A6969&amp;tr=udp%3A%2F%2Fexodus.desync.com%3A6969","seeders":0,"leechers":1,"uploader":null,"files":3,"time":1454324656,"description":"Video\r\nID                                       : 1\r\nFormat                                   : AVC\r\nFormat/Info                              : Advanced Video Codec\r\nFormat profile                           :   \r\nFormat settings, CABAC                   : Yes\r\nFormat settings, ReFrames                : 5 frames\r\nCodec ID                                 : V_MPEG4/ISO/AVC\r\nDuration                                 : 1h 52mn\r\nBit rate                                 : 11.0 Mbps\r\nWidth                                    : 1 918 pixels\r\nHeight                                   : 800 pixels\r\nDisplay aspect ratio                     : 2.40:1\r\nFrame rate mode                          : Constant\r\nFrame rate                               : 23.976 (24000/1001) fps\r\nColor space                              : YUV\r\nChroma subsampling                       : 4:2:0\r\nBit depth                                : 8 bits\r\nScan type                                : Progressive\r\nBits/(Pixel*Frame)                       : 0.299\r\nStream size                              : 8.42 GiB (86%)\r\nWriting library                          : x264 core 125 r2200 999b753\r\nEncoding settings                        : cabac=1 / ref=5 / deblock=1:-3:-3 / analyse=0x3:0x133 / me=umh / subme=11 / psy=1 / psy_rd=1.05:0.00 / mixed_ref=1 / me_range=48 / chroma_me=1 / trellis=2 / 8x8dct=1 / cqm=0 / deadzone=21,11 / fast_pskip=0 / chroma_qp_offset=-2 / threads=12 / lookahead_threads=2 / sliced_threads=0 / nr=0 / decimate=1 / interlaced=0 / bluray_compat=0 / constrained_intra=0 / bframes=7 / b_pyramid=2 / b_adapt=2 / b_bias=0 / direct=3 / weightb=1 / open_gop=0 / weightp=2 / keyint=250 / keyint_min=23 / scenecut=40 / intra_refresh=0 / rc_lookahead=40 / rc=2pass / mbtree=0 / bitrate=11000 / ratetol=1.0 / qcomp=0.60 / qpmin=0 / qpmax=69 / qpstep=4 / cplxblur=20.0 / qblur=0.5 / vbv_maxrate=62500 / vbv_bufsize=78125 / nal_hrd=none / ip_ratio=1.40 / pb_ratio=1.30 / aq=1:0.80\r\nLanguage                                 : English\r\nDefault                                  : Yes\r\nForced                                   : No\r\n\r\nAudio\r\nID                                       : 2\r\nFormat                                   : DTS\r\nFormat/Info                              : Digital Theater Systems\r\nMode                                     : 16\r\nFormat settings, Endianness              : Big\r\nCodec ID                                 : A_DTS\r\nDuration                                 : 1h 52mn\r\nBit rate mode                            : Constant\r\nBit rate                                 : 1 509 Kbps\r\nChannel(s)                               : 6 channels\r\nChannel positions                        : Front: L C R, Side: L R, LFE\r\nSampling rate                            : 48.0 KHz\r\nFrame rate                               : 93.750 fps (512 spf)\r\nBit depth                                : 24 bits\r\nCompression mode                         : Lossy\r\nStream size                              : 1.18 GiB (12%)\r\nLanguage                                 : English\r\nDefault                                  : Yes\r\nForced                                   : No\r\n\r\nText #1\r\nID                                       : 3\r\nFormat                                   : UTF-8\r\nCodec ID                                 : S_TEXT/UTF8\r\nCodec ID/Info                            : UTF-8 Plain Text\r\nTitle                                    : English\r\nLanguage                                 : English\r\nDefault                                  : No\r\nForced                                   : No","torrent":{"xt":"urn:btih:0d7238c39c17b8785d9bf5ac347d0e4d004f0a19","amp;dn":"The.Sweet.Hereafter.1997.1080p.BluRay.x264.DTS-FGT","amp;tr":["udp%3A%2F%2Ftracker.leechers-paradise.org%3A6969","udp%3A%2F%2Fzer0day.ch%3A1337","udp%3A%2F%2Fopen.demonii.com%3A1337","udp%3A%2F%2Ftracker.coppersurfer.tk%3A6969","udp%3A%2F%2Fexodus.desync.com%3A6969"],"infoHash":"0d7238c39c17b8785d9bf5ac347d0e4d004f0a19","infoHashBuffer":{"type":"Buffer","data":[13,114,56,195,156,23,184,120,93,155,245,172,52,125,14,77,0,79,10,25]},"announce":[],"urlList":[]}}